inDegrees=no
num_controls=7
num_derivatives=13
num_iterations=187
num_multipliers=7
num_parameters=0
num_slacks=7
num_states=26
objective=0.304111
objective_accelerations=0.000000
objective_balance=0.002943
objective_effort=0.065029
objective_height=0.180270
objective_ligament=0.055869
solver_duration=2852.620629
status=Solve_Succeeded
success=true
DataType=double
version=3
OpenSimVersion=4.5
endheader
time	/jointset/ground_pelvis/pelvis_tilt/value	/jointset/ground_pelvis/pelvis_tx/value	/jointset/ground_pelvis/pelvis_ty/value	/jointset/hip_l/hip_flexion_l/value	/jointset/hip_l/hip_adduction_l/value	/jointset/hip_l/hip_rotation_l/value	/jointset/back/lumbar_extension/value	/jointset/patellofemoral_l/patellar_flexion_l/value	/jointset/knee_l/knee_flexion_l/value	/jointset/knee_l/knee_adduction_l/value	/jointset/knee_l/knee_rotation_l/value	/jointset/ankle_l/ankle_angle_l/value	/jointset/subtalar_l/subtalar_angle_l/value	/jointset/ground_pelvis/pelvis_tilt/speed	/jointset/ground_pelvis/pelvis_tx/speed	/jointset/ground_pelvis/pelvis_ty/speed	/jointset/hip_l/hip_flexion_l/speed	/jointset/hip_l/hip_adduction_l/speed	/jointset/hip_l/hip_rotation_l/speed	/jointset/back/lumbar_extension/speed	/jointset/patellofemoral_l/patellar_flexion_l/speed	/jointset/knee_l/knee_flexion_l/speed	/jointset/knee_l/knee_adduction_l/speed	/jointset/knee_l/knee_rotation_l/speed	/jointset/ankle_l/ankle_angle_l/speed	/jointset/subtalar_l/subtalar_angle_l/speed	/forceset/tau_hip_flexion_l	/forceset/tau_hip_adduction_l	/forceset/tau_hip_rotation_l	/forceset/tau_knee_flexion_l	/forceset/tau_ankle_angle_l	/forceset/tau_subtalar_angle_l	/forceset/tau_lumbar_extension	lambda_cid13_p0	lambda_cid13_p1	lambda_cid13_p2	lambda_cid13_p3	lambda_cid13_p4	lambda_cid13_p5	lambda_cid14_p0	/jointset/ground_pelvis/pelvis_tilt/accel	/jointset/ground_pelvis/pelvis_tx/accel	/jointset/ground_pelvis/pelvis_ty/accel	/jointset/hip_l/hip_flexion_l/accel	/jointset/hip_l/hip_adduction_l/accel	/jointset/hip_l/hip_rotation_l/accel	/jointset/back/lumbar_extension/accel	/jointset/patellofemoral_l/patellar_flexion_l/accel	/jointset/knee_l/knee_flexion_l/accel	/jointset/knee_l/knee_adduction_l/accel	/jointset/knee_l/knee_rotation_l/accel	/jointset/ankle_l/ankle_angle_l/accel	/jointset/subtalar_l/subtalar_angle_l/accel	gamma_cid13_p0	gamma_cid13_p1	gamma_cid13_p2	gamma_cid13_p3	gamma_cid13_p4	gamma_cid13_p5	gamma_cid14_p0
0.5	-0.2212813044550488	-0.005587999138398306	0.3428047054718598	2.181383143300347	-0.4586831208193131	0.2189477923380569	-0.2614243814016378	2.159196618235494	2.159196618235735	0.1686532872843579	-0.1607060200086211	0.4348449986730173	0.1552274043818955	0.3125842360049719	0.07482053326087336	-0.08628838867289972	0.002461466458199733	-0.1610773269031595	-0.04468160453990332	-0.003440374120905633	0.3432122311498241	0.3432122311498437	0.1361361633388024	-0.2385643208392657	0.0993097346431203	-0.185236833795135	-0.1133007051494018	-0.02909509414876101	-0.05942753000193719	-0.5110809366522675	0.05498741828989048	0.01505677694803525	0.1276291941626514	-23.83589555495412	4.970581873053543	-9.508123132250653	44.60223552571574	-615.5393199046733	-75.55240907577955	-0.02186025294363428	-2.971526575310226	-1.582932598398852	1.435427916884314	0.7226566783276833	-2.240959677741925	-12.37169088177284	-0.4680359774425742	-5.693276323964168	-5.693276323963731	5.331909286451317	-1.356697248334885	-4.728835284466228	-8.023186843843632	3.639288784947748e-07	1.349128662444329e-05	5.117290912769178e-06	-4.58687779494999e-07	3.439548305932919e-06	7.289500248328876e-05	-6.945688921689222e-06
0.51	-0.2183000565745673	-0.004916258078488995	0.3420100865547238	2.181434885293252	-0.4603650062572264	0.2182118388888844	-0.2614824005469428	2.162348721812053	2.162348721812204	0.170024235125313	-0.1632183762170852	0.4356212498994136	0.1530562196899159	0.2837542207976728	0.05977693190643984	-0.07302806408873153	0.007239455173571957	-0.1708803302096727	-0.07381369251731018	-0.007854880802569308	0.2877180323435533	0.2877180323435646	0.1165996362078137	-0.2674430315518798	0.05798101793626984	-0.2400280661639889	-0.1076311811044264	-0.03084178529896663	-0.05627977424339291	-0.5036355961821452	0.06139352574309444	0.01775493052518512	0.1235041111621066	-20.52893439901885	2.492390382418752	-8.282219099803157	36.2701149465876	-604.8071134410927	-76.78430840643969	-0.02165657758064938	-2.826916811059419	-1.427905465744864	1.213462799625212	0.2568319438778614	0.3121705769126963	6.118702627222016	-0.3818718926113991	-5.398860993650429	-5.398860993651902	-8.818994872482625	-4.178902995526674	-3.528787556480768	-2.864871255695695	-7.40662953433438e-07	1.094954196463403e-05	5.37969594092362e-06	-2.506561424572349e-07	3.208542884820176e-06	6.477917467280161e-05	-6.784859349620883e-06
0.52	-0.2156047444096818	-0.004387519344479648	0.341336496497518	2.181514699568414	-0.4620124934814011	0.2180450986365251	-0.2615753075348447	2.164961609533611	2.164961609533671	0.1705553054630321	-0.1661246085352346	0.4360454344201863	0.1506055667097898	0.2553970928855804	0.04622006808088014	-0.06208261668689697	0.008075922918375941	-0.1541976841554368	0.06916103482314787	-0.0104179426475626	0.2353690601496056	0.2353690601496072	-0.03183933730752241	-0.3173395427765742	0.02889639352196629	-0.2411304914244201	-0.1019616570594489	-0.0325884764491713	-0.05313201848485366	-0.4961902557120241	0.06779963319629648	0.02045308410233502	0.1193790281615635	-17.22460831170617	-0.06810531312835023	-6.948643776453839	27.93457659963906	-593.9726196585585	-78.54553053380715	-0.02143077113663721	-2.876949116268774	-1.285585092624121	0.9724524804176242	-0.06564751578616025	3.056170194407902	22.04967218180008	-0.0977470101082015	-5.064231001499627	-5.064231001499479	-20.44857999041817	-5.560257350750929	-2.280016825956894	2.714574577840892	6.157559935477076e-07	-8.090344217941726e-07	-1.15418006746087e-07	1.460713156881396e-06	-6.985419184252283e-07	-1.060017380388674e-05	1.715669119741554e-06
0.53	-0.2131942417152603	-0.003986405496125425	0.340761381467944	2.181588424664511	-0.4633825249226192	0.2196134713034369	-0.2616799611117637	2.167084586931414	2.167084586931515	0.1694438660439808	-0.1694235209499412	0.436237433318423	0.1483837752543944	0.2266094631065913	0.03431581811634442	-0.05324033425223208	0.0064529627331253	-0.1179601482987606	0.2190354565587788	-0.00993766673595122	0.1915661005505669	0.1915661005505716	-0.1650718784516219	-0.3257809240540728	0.01116442824221192	-0.1979775910909728	-0.0962211111096886	-0.03575571114462706	-0.05504326273841412	-0.4894098801074086	0.07445672537242873	0.02165360983126214	0.1157405235024398	-14.14329664678833	-1.761842027519914	-5.955783269076996	19.26915100941813	-586.1927476946795	-78.90797706567695	-0.02107815281287454	-2.89287118724284	-1.095405546796682	0.7945742219211033	-0.2422132702754363	4.185185341958325	7.635628179873825	0.2071807923111842	-3.688612387263903	-3.688612387263491	-5.951758290551216	4.011047557723987	-1.27044426925064	5.90460970586282	1.46680836051984e-06	-5.696294640590431e-06	-2.441182390995473e-06	1.802133736329327e-06	-2.381058503177588e-06	-4.057599243665671e-05	5.185524168677264e-06
0.54	-0.2110742555743327	-0.003694846267102009	0.3402655808821026	2.181639601558576	-0.4643346529931384	0.2219164483897894	-0.2617625587493867	2.168839477943594	2.168839477943736	0.1677618677906546	-0.1723074219626262	0.4363019809857011	0.1467513051912868	0.1972937821864382	0.02430914421471876	-0.04621972794039921	0.003566282532632092	-0.07061701001564979	0.2160819187115791	-0.006006754803730914	0.1617517830252098	0.1617517830252176	-0.1459511041615382	-0.2343372623726383	0.003406147351818761	-0.1232662129668792	-0.09048056515992843	-0.03892294584008113	-0.05695450699198094	-0.4826295045027944	0.08111381754856012	0.0228541355601914	0.1121020188433169	-11.07259439074376	-3.453941879073975	-4.962901561952984	10.60546096077302	-578.3338557992398	-79.59612832245266	-0.02072323565200285	-2.982559344501278	-0.9060698800421902	0.6081172558512884	-0.3183915188350647	5.277290679694871	-8.515919734766074	0.592380194014158	-2.266502586763475	-2.266502586763346	10.02208309641837	14.41675124103575	-0.2852799480847875	9.026270135970105	1.758731745354334e-06	-2.981247610091685e-06	-1.260432364652121e-06	6.278663703662534e-07	-1.602350675980166e-06	-2.031811847615469e-05	3.08952777373653e-06
